<svg id="Layer_1" data-name="Layer 1" xmlns="http://www.w3.org/2000/svg" viewBox="0 0 29 25.5"><defs><style>.cls-1{fill:#fff;}</style></defs><title>favorite</title><path class="cls-1" d="M-57.15,21.62l-.79-.71Q-62,17.16-64.69,14.5A53.28,53.28,0,0,1-68.9,9.83,15,15,0,0,1-71,6.22,9.11,9.11,0,0,1-71.65,3a6.71,6.71,0,0,1,2-4.92,6.7,6.7,0,0,1,4.92-2,7.48,7.48,0,0,1,4.16,1.23A11.31,11.31,0,0,1-57.15,1a11.44,11.44,0,0,1,3.44-3.62,7.5,7.5,0,0,1,4.14-1.21,6.67,6.67,0,0,1,4.92,2,6.67,6.67,0,0,1,2,4.92,8.88,8.88,0,0,1-.56,3.18,14.16,14.16,0,0,1-2.14,3.61,50.27,50.27,0,0,1-4.21,4.67q-2.67,2.64-6.75,6.41Z" transform="translate(71.65 3.88)"/></svg>